<svg width="2185" height="585" viewBox="0 0 2185 585" fill="none" xmlns="http://www.w3.org/2000/svg">
<rect width="2185" height="585" fill="white"/>
<path d="M88.0589 463.011V471.011" stroke="#C9C9C9"/>
<path d="M98.0589 463.011V471.011" stroke="#C9C9C9"/>
<path d="M108.059 463.011V471.011" stroke="#C9C9C9"/>
<path d="M118.059 463.011V471.011" stroke="#C9C9C9"/>
<path d="M128.059 463.011V471.011" stroke="#C9C9C9"/>
<path d="M138.059 463.011V471.011" stroke="#C9C9C9"/>
<path d="M148.059 463.011V471.011" stroke="#C9C9C9"/>
<path d="M158.059 463.011V471.011" stroke="#C9C9C9"/>
<path d="M168.059 463.011V471.011" stroke="#C9C9C9"/>
<path d="M178.059 463.011V471.011" stroke="#C9C9C9"/>
<path d="M188.059 463.011L188.059 493.011" stroke="#C9C9C9"/>
<path d="M198.059 463.011V471.011" stroke="#C9C9C9"/>
<path d="M208.059 463.011V471.011" stroke="#C9C9C9"/>
<path d="M218.059 463.011V471.011" stroke="#C9C9C9"/>
<path d="M228.059 463.011V471.011" stroke="#C9C9C9"/>
<path d="M238.059 463.011V471.011" stroke="#C9C9C9"/>
<path d="M248.059 463.011V471.011" stroke="#C9C9C9"/>
<path d="M258.059 463.011V471.011" stroke="#C9C9C9"/>
<path d="M268.059 463.011V471.011" stroke="#C9C9C9"/>
<path d="M278.059 463.011V471.011" stroke="#C9C9C9"/>
<path d="M288.059 463.011V471.011" stroke="#C9C9C9"/>
<path d="M298.059 463.011V471.011" stroke="#C9C9C9"/>
<path d="M308.059 463.011V471.011" stroke="#C9C9C9"/>
<path d="M318.059 463.011V471.011" stroke="#C9C9C9"/>
<path d="M328.059 463.011V471.011" stroke="#C9C9C9"/>
<path d="M338.059 463.011V471.011" stroke="#C9C9C9"/>
<path d="M348.059 463.011V471.011" stroke="#C9C9C9"/>
<path d="M358.059 463.011V471.011" stroke="#C9C9C9"/>
<path d="M368.059 463.011V471.011" stroke="#C9C9C9"/>
<path d="M378.059 463.011V471.011" stroke="#C9C9C9"/>
<path d="M388.059 463.011V471.011" stroke="#C9C9C9"/>
<path d="M398.059 463.011V471.011" stroke="#C9C9C9"/>
<path d="M408.059 463.011V471.011" stroke="#C9C9C9"/>
<path d="M418.059 463.011V471.011" stroke="#C9C9C9"/>
<path d="M428.059 463.011V471.011" stroke="#C9C9C9"/>
<path d="M438.059 463.011V471.011" stroke="#C9C9C9"/>
<path d="M448.059 463.011V471.011" stroke="#C9C9C9"/>
<path d="M458.059 463.011V471.011" stroke="#C9C9C9"/>
<path d="M468.059 463.011V471.011" stroke="#C9C9C9"/>
<path d="M478.059 463.011V471.011" stroke="#C9C9C9"/>
<path d="M488.059 463.011V471.011" stroke="#C9C9C9"/>
<path d="M498.059 463.011V471.011" stroke="#C9C9C9"/>
<path d="M508.059 463.011V471.011" stroke="#C9C9C9"/>
<path d="M518.059 463.011V493.011" stroke="#C9C9C9"/>
<path d="M528.059 463.011V471.011" stroke="#C9C9C9"/>
<path d="M538.059 463.011V471.011" stroke="#C9C9C9"/>
<path d="M548.059 463.011V471.011" stroke="#C9C9C9"/>
<path d="M558.059 463.011V471.011" stroke="#C9C9C9"/>
<path d="M568.059 463.011V471.011" stroke="#C9C9C9"/>
<path d="M578.059 463.011V471.011" stroke="#C9C9C9"/>
<path d="M588.059 463.011V471.011" stroke="#C9C9C9"/>
<path d="M598.059 463.011V471.011" stroke="#C9C9C9"/>
<path d="M608.059 463.011V471.011" stroke="#C9C9C9"/>
<path d="M618.059 463.011V471.011" stroke="#C9C9C9"/>
<path d="M628.059 463.011V471.011" stroke="#C9C9C9"/>
<path d="M638.059 463.011V471.011" stroke="#C9C9C9"/>
<path d="M648.059 463.011V471.011" stroke="#C9C9C9"/>
<path d="M658.059 463.011V471.011" stroke="#C9C9C9"/>
<path d="M668.059 463.011V471.011" stroke="#C9C9C9"/>
<path d="M678.059 463.011V471.011" stroke="#C9C9C9"/>
<path d="M688.059 463.011V471.011" stroke="#C9C9C9"/>
<path d="M698.059 463.011V471.011" stroke="#C9C9C9"/>
<path d="M708.059 463.011V471.011" stroke="#C9C9C9"/>
<path d="M718.059 463.011V471.011" stroke="#C9C9C9"/>
<path d="M728.059 463.011V471.011" stroke="#C9C9C9"/>
<path d="M738.059 463.011V471.011" stroke="#C9C9C9"/>
<path d="M748.059 463.011V471.011" stroke="#C9C9C9"/>
<path d="M758.059 463.011V471.011" stroke="#C9C9C9"/>
<path d="M768.059 463.011V471.011" stroke="#C9C9C9"/>
<path d="M778.059 463.011V471.011" stroke="#C9C9C9"/>
<path d="M788.059 463.011V471.011" stroke="#C9C9C9"/>
<path d="M798.059 463.011V471.011" stroke="#C9C9C9"/>
<path d="M808.059 463.011V471.011" stroke="#C9C9C9"/>
<path d="M818.059 463.011V471.011" stroke="#C9C9C9"/>
<path d="M828.059 463.011V471.011" stroke="#C9C9C9"/>
<path d="M838.059 463.011V471.011" stroke="#C9C9C9"/>
<path d="M848.059 463.011V493.011" stroke="#C9C9C9"/>
<path d="M858.059 463.011V471.011" stroke="#C9C9C9"/>
<path d="M868.059 463.011V471.011" stroke="#C9C9C9"/>
<path d="M878.059 463.011V471.011" stroke="#C9C9C9"/>
<path d="M888.059 463.011V471.011" stroke="#C9C9C9"/>
<path d="M898.059 463.011V471.011" stroke="#C9C9C9"/>
<path d="M908.059 463.011V471.011" stroke="#C9C9C9"/>
<path d="M918.059 463.011V471.011" stroke="#C9C9C9"/>
<path d="M928.059 463.011V471.011" stroke="#C9C9C9"/>
<path d="M938.059 463.011V471.011" stroke="#C9C9C9"/>
<path d="M948.059 463.011V471.011" stroke="#C9C9C9"/>
<path d="M958.059 463.011V471.011" stroke="#C9C9C9"/>
<path d="M968.059 463.011V471.011" stroke="#C9C9C9"/>
<path d="M978.059 463.011V471.011" stroke="#C9C9C9"/>
<path d="M988.059 463.011V471.011" stroke="#C9C9C9"/>
<path d="M998.059 463.011V471.011" stroke="#C9C9C9"/>
<path d="M1008.06 463.011V471.011" stroke="#C9C9C9"/>
<path d="M1018.06 463.011V471.011" stroke="#C9C9C9"/>
<path d="M1028.06 463.011V471.011" stroke="#C9C9C9"/>
<path d="M1038.06 463.011V471.011" stroke="#C9C9C9"/>
<path d="M1048.06 463.011V471.011" stroke="#C9C9C9"/>
<path d="M1058.06 463.011V471.011" stroke="#C9C9C9"/>
<path d="M1068.06 463.011V471.011" stroke="#C9C9C9"/>
<path d="M1078.06 463.011V471.011" stroke="#C9C9C9"/>
<path d="M1088.06 463.011V471.011" stroke="#C9C9C9"/>
<path d="M1098.06 463.011V471.011" stroke="#C9C9C9"/>
<path d="M1108.06 463.011V471.011" stroke="#C9C9C9"/>
<path d="M1118.06 463.011V471.011" stroke="#C9C9C9"/>
<path d="M1128.06 463.011V471.011" stroke="#C9C9C9"/>
<path d="M1138.06 463.011V471.011" stroke="#C9C9C9"/>
<path d="M1148.06 463.011V471.011" stroke="#C9C9C9"/>
<path d="M1158.06 463.011V471.011" stroke="#C9C9C9"/>
<path d="M1168.06 463.011V471.011" stroke="#C9C9C9"/>
<path d="M1178.06 463.011V471.011" stroke="#C9C9C9"/>
<path d="M1188.06 463.011V493.011" stroke="#C9C9C9"/>
<path d="M1198.06 463.011V471.011" stroke="#C9C9C9"/>
<path d="M1208.06 463.011V471.011" stroke="#C9C9C9"/>
<path d="M1218.06 463.011V471.011" stroke="#C9C9C9"/>
<path d="M1228.06 463.011V471.011" stroke="#C9C9C9"/>
<path d="M1238.06 463.011V471.011" stroke="#C9C9C9"/>
<path d="M1248.06 463.011V471.011" stroke="#C9C9C9"/>
<path d="M1258.06 463.011V471.011" stroke="#C9C9C9"/>
<path d="M1268.06 463.011V471.011" stroke="#C9C9C9"/>
<path d="M1278.06 463.011V471.011" stroke="#C9C9C9"/>
<path d="M1288.06 463.011V471.011" stroke="#C9C9C9"/>
<path d="M1298.06 463.011V471.011" stroke="#C9C9C9"/>
<path d="M1308.06 463.011V471.011" stroke="#C9C9C9"/>
<path d="M1318.06 463.011V471.011" stroke="#C9C9C9"/>
<path d="M1328.06 463.011V471.011" stroke="#C9C9C9"/>
<path d="M1338.06 463.011V471.011" stroke="#C9C9C9"/>
<path d="M1348.06 463.011V471.011" stroke="#C9C9C9"/>
<path d="M1358.06 463.011V471.011" stroke="#C9C9C9"/>
<path d="M1368.06 463.011V471.011" stroke="#C9C9C9"/>
<path d="M1378.06 463.011V471.011" stroke="#C9C9C9"/>
<path d="M1388.06 463.011V471.011" stroke="#C9C9C9"/>
<path d="M1398.06 463.011V471.011" stroke="#C9C9C9"/>
<path d="M1408.06 463.011V471.011" stroke="#C9C9C9"/>
<path d="M1418.06 463.011V471.011" stroke="#C9C9C9"/>
<path d="M1428.06 463.011V471.011" stroke="#C9C9C9"/>
<path d="M1438.06 463.011V471.011" stroke="#C9C9C9"/>
<path d="M1448.06 463.011V471.011" stroke="#C9C9C9"/>
<path d="M1458.06 463.011V471.011" stroke="#C9C9C9"/>
<path d="M1468.06 463.011V471.011" stroke="#C9C9C9"/>
<path d="M1478.06 463.011V471.011" stroke="#C9C9C9"/>
<path d="M1488.06 463.011V471.011" stroke="#C9C9C9"/>
<path d="M1498.06 463.011V471.011" stroke="#C9C9C9"/>
<path d="M1508.06 463.011V471.011" stroke="#C9C9C9"/>
<path d="M1518.06 463.011V493.011" stroke="#C9C9C9"/>
<path d="M1528.06 463.011V471.011" stroke="#C9C9C9"/>
<path d="M1538.06 463.011V471.011" stroke="#C9C9C9"/>
<path d="M1548.06 463.011V471.011" stroke="#C9C9C9"/>
<path d="M1558.06 463.011V471.011" stroke="#C9C9C9"/>
<path d="M1568.06 463.011V471.011" stroke="#C9C9C9"/>
<path d="M1578.06 463.011V471.011" stroke="#C9C9C9"/>
<path d="M1588.06 463.011V471.011" stroke="#C9C9C9"/>
<path d="M1598.06 463.011V471.011" stroke="#C9C9C9"/>
<path d="M1608.06 463.011V471.011" stroke="#C9C9C9"/>
<path d="M1618.06 463.011V471.011" stroke="#C9C9C9"/>
<path d="M1628.06 463.011V471.011" stroke="#C9C9C9"/>
<path d="M1638.06 463.011V471.011" stroke="#C9C9C9"/>
<path d="M1648.06 463.011V471.011" stroke="#C9C9C9"/>
<path d="M1658.06 463.011V471.011" stroke="#C9C9C9"/>
<path d="M1668.06 463.011V471.011" stroke="#C9C9C9"/>
<path d="M1678.06 463.011V471.011" stroke="#C9C9C9"/>
<path d="M1688.06 463.011V471.011" stroke="#C9C9C9"/>
<path d="M1698.06 463.011V471.011" stroke="#C9C9C9"/>
<path d="M1708.06 463.011V471.011" stroke="#C9C9C9"/>
<path d="M1718.06 463.011V471.011" stroke="#C9C9C9"/>
<path d="M1728.06 463.011V471.011" stroke="#C9C9C9"/>
<path d="M1738.06 463.011V471.011" stroke="#C9C9C9"/>
<path d="M1748.06 463.011V471.011" stroke="#C9C9C9"/>
<path d="M1758.06 463.011V471.011" stroke="#C9C9C9"/>
<path d="M1768.06 463.011V471.011" stroke="#C9C9C9"/>
<path d="M1778.06 463.011V471.011" stroke="#C9C9C9"/>
<path d="M1788.06 463.011V471.011" stroke="#C9C9C9"/>
<path d="M1798.06 463.011V471.011" stroke="#C9C9C9"/>
<path d="M1808.06 463.011V471.011" stroke="#C9C9C9"/>
<path d="M1818.06 463.011V471.011" stroke="#C9C9C9"/>
<path d="M1828.06 463.011V471.011" stroke="#C9C9C9"/>
<path d="M1838.06 463.011V471.011" stroke="#C9C9C9"/>
<path d="M1848.06 463.011V471.011" stroke="#C9C9C9"/>
<path d="M1858.06 463.011V471.011" stroke="#C9C9C9"/>
<path d="M1868.06 463.011V471.011" stroke="#C9C9C9"/>
<path d="M1878.06 463.011V471.011" stroke="#C9C9C9"/>
<path d="M1888.06 463.011V471.011" stroke="#C9C9C9"/>
<path d="M1898.06 463.011V471.011" stroke="#C9C9C9"/>
<path d="M1908.06 463.011V471.011" stroke="#C9C9C9"/>
<path d="M1918.06 463.011V471.011" stroke="#C9C9C9"/>
<path d="M1928.06 463.011V471.011" stroke="#C9C9C9"/>
<path d="M1938.06 463.011V471.011" stroke="#C9C9C9"/>
<path d="M1948.06 463.011V471.011" stroke="#C9C9C9"/>
<path d="M1958.06 463.011V471.011" stroke="#C9C9C9"/>
<path d="M1968.06 463.011V471.011" stroke="#C9C9C9"/>
<path d="M1978.06 463.011V471.011" stroke="#C9C9C9"/>
<path d="M1988.06 463.011V471.011" stroke="#C9C9C9"/>
<path d="M1998.06 463.011V471.011" stroke="#C9C9C9"/>
<path d="M2008.06 463.011V471.011" stroke="#C9C9C9"/>
<path d="M2018.06 463.011V471.011" stroke="#C9C9C9"/>
<path d="M2028.06 463.011V471.011" stroke="#C9C9C9"/>
<path d="M2038.06 463.011V471.011" stroke="#C9C9C9"/>
<path d="M2048.06 463.011V471.011" stroke="#C9C9C9"/>
<path d="M2058.06 463.011V471.011" stroke="#C9C9C9"/>
<path d="M2068.06 463.011V471.011" stroke="#C9C9C9"/>
<path d="M2078.06 463.011V471.011" stroke="#C9C9C9"/>
<path d="M2088.06 463.011V471.011" stroke="#C9C9C9"/>
<path d="M2098.06 463.011V471.011" stroke="#C9C9C9"/>
<path d="M2108.06 463.011V471.011" stroke="#C9C9C9"/>
<path d="M2118.06 463.011V471.011" stroke="#C9C9C9"/>
<path d="M2128.06 463.011V471.011" stroke="#C9C9C9"/>
<path d="M2138.06 463.011V471.011" stroke="#C9C9C9"/>
<path d="M128.3 534.94V524.42H125.34V522.94H126.54C128.1 522.94 128.66 522.42 128.66 520.74H130.02V534.94H128.3ZM132.821 534.94C132.821 531.94 134.001 529.96 138.261 527.7C140.221 526.66 141.001 526.02 141.001 524.58C141.001 523.12 140.041 522.1 138.161 522.1C136.161 522.1 135.001 523.18 134.701 525.1L132.901 524.98C133.221 522.2 135.081 520.42 138.161 520.42C141.081 520.42 142.801 522.1 142.801 524.54C142.801 526.7 141.841 527.78 138.901 529.34C136.341 530.7 135.021 532.18 134.941 533.26H142.801V534.94H132.821ZM145.444 527.08V524.82H147.704V527.08H145.444ZM145.444 534.94V532.68H147.704V534.94H145.444ZM155.761 535.26C152.321 535.26 150.141 532.4 150.141 527.86C150.141 523.3 152.321 520.42 155.761 520.42C159.221 520.42 161.401 523.28 161.401 527.86C161.401 532.4 159.221 535.26 155.761 535.26ZM155.761 533.58C158.221 533.58 159.601 531.52 159.601 527.86C159.601 524.18 158.221 522.1 155.761 522.1C153.321 522.1 151.941 524.18 151.941 527.86C151.941 531.52 153.321 533.58 155.761 533.58ZM168.818 535.26C165.378 535.26 163.198 532.4 163.198 527.86C163.198 523.3 165.378 520.42 168.818 520.42C172.278 520.42 174.458 523.28 174.458 527.86C174.458 532.4 172.278 535.26 168.818 535.26ZM168.818 533.58C171.278 533.58 172.658 531.52 172.658 527.86C172.658 524.18 171.278 522.1 168.818 522.1C166.378 522.1 164.998 524.18 164.998 527.86C164.998 531.52 166.378 533.58 168.818 533.58Z" fill="#171717"/>
<path d="M305.857 534.94V520.74H314.777V522.42H307.577V527.18H314.417V528.82H307.577V534.94H305.857ZM316.408 534.94V524.34H317.888L317.948 526.3C318.328 524.96 319.168 524.34 320.468 524.34H321.508V525.94H320.488C318.888 525.94 318.088 526.8 318.088 528.54V534.94H316.408ZM322.941 522.68V520.72H324.701V522.68H322.941ZM322.981 534.94V524.34H324.661V534.94H322.981ZM336.704 535.26C333.704 535.26 331.864 533.64 331.664 531.28L333.464 531.16C333.664 532.76 334.904 533.58 336.704 533.58C338.704 533.58 339.964 532.38 339.964 530.38C339.964 528.38 338.744 527.12 336.664 527.12C335.344 527.12 334.204 527.72 333.744 528.72H331.904L332.844 520.74H340.804V522.42H334.424L333.904 526.7C334.624 525.9 335.764 525.48 336.984 525.48C339.824 525.48 341.764 527.54 341.764 530.38C341.764 533.24 339.684 535.26 336.704 535.26Z" fill="#171717"/>
<path d="M475.3 534.94V524.42H472.34V522.94H473.54C475.1 522.94 475.66 522.42 475.66 520.74H477.02V534.94H475.3ZM479.821 534.94C479.821 531.94 481.001 529.96 485.261 527.7C487.221 526.66 488.001 526.02 488.001 524.58C488.001 523.12 487.041 522.1 485.161 522.1C483.161 522.1 482.001 523.18 481.701 525.1L479.901 524.98C480.221 522.2 482.081 520.42 485.161 520.42C488.081 520.42 489.801 522.1 489.801 524.54C489.801 526.7 488.841 527.78 485.901 529.34C483.341 530.7 482.021 532.18 481.941 533.26H489.801V534.94H479.821ZM492.444 527.08V524.82H494.704V527.08H492.444ZM492.444 534.94V532.68H494.704V534.94H492.444ZM502.761 535.26C499.321 535.26 497.141 532.4 497.141 527.86C497.141 523.3 499.321 520.42 502.761 520.42C506.221 520.42 508.401 523.28 508.401 527.86C508.401 532.4 506.221 535.26 502.761 535.26ZM502.761 533.58C505.221 533.58 506.601 531.52 506.601 527.86C506.601 524.18 505.221 522.1 502.761 522.1C500.321 522.1 498.941 524.18 498.941 527.86C498.941 531.52 500.321 533.58 502.761 533.58ZM515.818 535.26C512.378 535.26 510.198 532.4 510.198 527.86C510.198 523.3 512.378 520.42 515.818 520.42C519.278 520.42 521.458 523.28 521.458 527.86C521.458 532.4 519.278 535.26 515.818 535.26ZM515.818 533.58C518.278 533.58 519.658 531.52 519.658 527.86C519.658 524.18 518.278 522.1 515.818 522.1C513.378 522.1 511.998 524.18 511.998 527.86C511.998 531.52 513.378 533.58 515.818 533.58Z" fill="#171717"/>
<path d="M654.172 535.26C650.892 535.26 648.792 533.28 648.552 530.4L650.352 530.28C650.632 532.4 651.932 533.58 654.212 533.58C656.192 533.58 657.352 532.8 657.352 531.34C657.352 530.02 656.692 529.22 653.292 528.38C650.012 527.56 648.852 526.58 648.852 524.46C648.852 522.08 650.652 520.42 653.572 520.42C656.692 520.42 658.532 522.34 658.852 524.94L657.052 525.06C656.812 523.34 655.652 522.1 653.532 522.1C651.772 522.1 650.652 523.02 650.652 524.38C650.652 525.72 651.372 526.2 654.372 526.94C657.932 527.82 659.152 529.18 659.152 531.22C659.152 533.7 657.072 535.26 654.172 535.26ZM664.501 535.18C662.301 535.18 660.921 534.12 660.921 532.3C660.921 530.5 661.941 529.5 664.261 529.06L668.021 528.36C668.021 526.58 667.181 525.7 665.501 525.7C664.021 525.7 663.201 526.38 662.881 527.6L661.101 527.46C661.501 525.46 663.101 524.1 665.501 524.1C668.221 524.1 669.701 525.74 669.701 528.42V532.8C669.701 533.28 669.861 533.46 670.261 533.46H670.681V534.94C670.561 534.96 670.301 534.98 670.041 534.98C668.761 534.98 668.181 534.48 668.041 533.3C667.521 534.4 666.061 535.18 664.501 535.18ZM664.661 533.7C666.781 533.7 668.021 532.34 668.021 530.58V529.82L664.581 530.46C663.141 530.72 662.681 531.26 662.681 532.14C662.681 533.14 663.421 533.7 664.661 533.7ZM675.14 534.94C673.22 534.94 672.32 534.1 672.32 532.22V525.82H670.76V524.34H672.32V521.86H674V524.34H676.82V525.82H674V532.18C674 533.14 674.42 533.46 675.3 533.46H676.82V534.94H675.14ZM687.732 535.26C684.532 535.26 682.692 533 682.692 528.94C682.692 524.26 684.092 520.42 688.292 520.42C690.812 520.42 692.132 521.78 692.692 523.78L690.892 523.94C690.572 522.82 689.852 522.1 688.292 522.1C686.132 522.1 684.772 523.78 684.492 527.2C685.172 526.16 686.432 525.38 688.052 525.38C690.852 525.38 692.752 527.3 692.752 530.22C692.752 533.34 690.672 535.26 687.732 535.26ZM687.772 533.58C689.632 533.58 690.952 532.34 690.952 530.22C690.952 528.26 689.712 527.02 687.932 527.02C686.012 527.02 684.572 528.26 684.572 530.22C684.572 532.18 685.812 533.58 687.772 533.58Z" fill="#171717"/>
<path d="M822.3 534.94V524.42H819.34V522.94H820.54C822.1 522.94 822.66 522.42 822.66 520.74H824.02V534.94H822.3ZM826.821 534.94C826.821 531.94 828.001 529.96 832.261 527.7C834.221 526.66 835.001 526.02 835.001 524.58C835.001 523.12 834.041 522.1 832.161 522.1C830.161 522.1 829.001 523.18 828.701 525.1L826.901 524.98C827.221 522.2 829.081 520.42 832.161 520.42C835.081 520.42 836.801 522.1 836.801 524.54C836.801 526.7 835.841 527.78 832.901 529.34C830.341 530.7 829.021 532.18 828.941 533.26H836.801V534.94H826.821ZM839.444 527.08V524.82H841.704V527.08H839.444ZM839.444 534.94V532.68H841.704V534.94H839.444ZM849.761 535.26C846.321 535.26 844.141 532.4 844.141 527.86C844.141 523.3 846.321 520.42 849.761 520.42C853.221 520.42 855.401 523.28 855.401 527.86C855.401 532.4 853.221 535.26 849.761 535.26ZM849.761 533.58C852.221 533.58 853.601 531.52 853.601 527.86C853.601 524.18 852.221 522.1 849.761 522.1C847.321 522.1 845.941 524.18 845.941 527.86C845.941 531.52 847.321 533.58 849.761 533.58ZM862.818 535.26C859.378 535.26 857.198 532.4 857.198 527.86C857.198 523.3 859.378 520.42 862.818 520.42C866.278 520.42 868.458 523.28 868.458 527.86C868.458 532.4 866.278 535.26 862.818 535.26ZM862.818 533.58C865.278 533.58 866.658 531.52 866.658 527.86C866.658 524.18 865.278 522.1 862.818 522.1C860.378 522.1 858.998 524.18 858.998 527.86C858.998 531.52 860.378 533.58 862.818 533.58Z" fill="#171717"/>
<path d="M994.349 534.94V520.74H998.749C1003.11 520.74 1005.57 523.3 1005.57 527.86C1005.57 532.4 1003.17 534.94 998.869 534.94H994.349ZM996.069 533.26H998.749C1002.09 533.26 1003.77 531.46 1003.77 527.86C1003.77 524.22 1002.09 522.42 998.749 522.42H996.069V533.26ZM1012.01 535.18C1009.01 535.18 1007.15 533 1007.15 529.64C1007.15 526.28 1009.01 524.1 1011.93 524.1C1014.69 524.1 1016.61 526.1 1016.61 529.66V530.16H1008.91C1009.03 532.44 1010.17 533.58 1012.01 533.58C1013.39 533.58 1014.29 532.88 1014.65 531.8L1016.45 531.94C1015.89 533.84 1014.25 535.18 1012.01 535.18ZM1008.91 528.68H1014.77C1014.61 526.64 1013.49 525.7 1011.93 525.7C1010.29 525.7 1009.19 526.72 1008.91 528.68ZM1022.62 535.18C1019.66 535.18 1017.76 533 1017.76 529.64C1017.76 526.28 1019.66 524.1 1022.62 524.1C1025.06 524.1 1026.76 525.42 1027.12 527.78L1025.36 527.9C1025.12 526.5 1024.06 525.7 1022.62 525.7C1020.66 525.7 1019.52 527.18 1019.52 529.64C1019.52 532.1 1020.66 533.58 1022.62 533.58C1024.06 533.58 1025.12 532.78 1025.36 531.18L1027.12 531.3C1026.76 533.66 1025.06 535.18 1022.62 535.18ZM1035.56 534.94C1035.56 530.54 1037.44 526.06 1040.6 522.42H1032.4V520.74H1042.48V522.3C1038.9 526.38 1037.32 530.14 1037.32 534.94H1035.56Z" fill="#171717"/>
<path d="M1169.3 534.94V524.42H1166.34V522.94H1167.54C1169.1 522.94 1169.66 522.42 1169.66 520.74H1171.02V534.94H1169.3ZM1173.82 534.94C1173.82 531.94 1175 529.96 1179.26 527.7C1181.22 526.66 1182 526.02 1182 524.58C1182 523.12 1181.04 522.1 1179.16 522.1C1177.16 522.1 1176 523.18 1175.7 525.1L1173.9 524.98C1174.22 522.2 1176.08 520.42 1179.16 520.42C1182.08 520.42 1183.8 522.1 1183.8 524.54C1183.8 526.7 1182.84 527.78 1179.9 529.34C1177.34 530.7 1176.02 532.18 1175.94 533.26H1183.8V534.94H1173.82ZM1186.44 527.08V524.82H1188.7V527.08H1186.44ZM1186.44 534.94V532.68H1188.7V534.94H1186.44ZM1196.76 535.26C1193.32 535.26 1191.14 532.4 1191.14 527.86C1191.14 523.3 1193.32 520.42 1196.76 520.42C1200.22 520.42 1202.4 523.28 1202.4 527.86C1202.4 532.4 1200.22 535.26 1196.76 535.26ZM1196.76 533.58C1199.22 533.58 1200.6 531.52 1200.6 527.86C1200.6 524.18 1199.22 522.1 1196.76 522.1C1194.32 522.1 1192.94 524.18 1192.94 527.86C1192.94 531.52 1194.32 533.58 1196.76 533.58ZM1209.82 535.26C1206.38 535.26 1204.2 532.4 1204.2 527.86C1204.2 523.3 1206.38 520.42 1209.82 520.42C1213.28 520.42 1215.46 523.28 1215.46 527.86C1215.46 532.4 1213.28 535.26 1209.82 535.26ZM1209.82 533.58C1212.28 533.58 1213.66 531.52 1213.66 527.86C1213.66 524.18 1212.28 522.1 1209.82 522.1C1207.38 522.1 1206 524.18 1206 527.86C1206 531.52 1207.38 533.58 1209.82 533.58Z" fill="#171717"/>
<path d="M1338.49 534.94V520.74H1340.89L1345.43 533.06L1349.95 520.74H1352.35V534.94H1350.63V523.94L1346.57 534.94H1344.27L1340.21 523.94V534.94H1338.49ZM1359.33 535.18C1356.39 535.18 1354.47 533.02 1354.47 529.64C1354.47 526.26 1356.39 524.1 1359.33 524.1C1362.25 524.1 1364.17 526.26 1364.17 529.64C1364.17 533.02 1362.25 535.18 1359.33 535.18ZM1359.33 533.58C1361.27 533.58 1362.41 532.1 1362.41 529.64C1362.41 527.18 1361.27 525.7 1359.33 525.7C1357.37 525.7 1356.23 527.18 1356.23 529.64C1356.23 532.1 1357.37 533.58 1359.33 533.58ZM1366.06 534.94V524.34H1367.6L1367.64 526.24C1368.2 524.78 1369.44 524.1 1370.9 524.1C1373.32 524.1 1374.48 525.88 1374.48 528.12V534.94H1372.8V528.6C1372.8 526.64 1372.14 525.58 1370.54 525.58C1368.9 525.58 1367.74 526.64 1367.74 528.6V534.94H1366.06ZM1386.32 535.26C1383.26 535.26 1381.08 533.8 1381.08 531.04C1381.08 529.2 1382.14 527.9 1383.82 527.3C1382.56 526.78 1381.76 525.84 1381.76 524.32C1381.76 522.08 1383.56 520.42 1386.32 520.42C1389.08 520.42 1390.88 522.08 1390.88 524.32C1390.88 525.84 1390.08 526.78 1388.82 527.3C1390.5 527.9 1391.56 529.2 1391.56 531.04C1391.56 533.8 1389.38 535.26 1386.32 535.26ZM1386.32 526.6C1388.08 526.6 1389.08 525.84 1389.08 524.32C1389.08 522.96 1388.12 522.1 1386.32 522.1C1384.52 522.1 1383.56 522.96 1383.56 524.32C1383.56 525.84 1384.56 526.6 1386.32 526.6ZM1386.32 533.58C1388.42 533.58 1389.76 532.74 1389.76 530.94C1389.76 529.28 1388.68 528.2 1386.32 528.2C1383.96 528.2 1382.88 529.28 1382.88 530.94C1382.88 532.74 1384.22 533.58 1386.32 533.58Z" fill="#171717"/>
<path d="M1516.3 534.94V524.42H1513.34V522.94H1514.54C1516.1 522.94 1516.66 522.42 1516.66 520.74H1518.02V534.94H1516.3ZM1520.82 534.94C1520.82 531.94 1522 529.96 1526.26 527.7C1528.22 526.66 1529 526.02 1529 524.58C1529 523.12 1528.04 522.1 1526.16 522.1C1524.16 522.1 1523 523.18 1522.7 525.1L1520.9 524.98C1521.22 522.2 1523.08 520.42 1526.16 520.42C1529.08 520.42 1530.8 522.1 1530.8 524.54C1530.8 526.7 1529.84 527.78 1526.9 529.34C1524.34 530.7 1523.02 532.18 1522.94 533.26H1530.8V534.94H1520.82ZM1533.44 527.08V524.82H1535.7V527.08H1533.44ZM1533.44 534.94V532.68H1535.7V534.94H1533.44ZM1543.76 535.26C1540.32 535.26 1538.14 532.4 1538.14 527.86C1538.14 523.3 1540.32 520.42 1543.76 520.42C1547.22 520.42 1549.4 523.28 1549.4 527.86C1549.4 532.4 1547.22 535.26 1543.76 535.26ZM1543.76 533.58C1546.22 533.58 1547.6 531.52 1547.6 527.86C1547.6 524.18 1546.22 522.1 1543.76 522.1C1541.32 522.1 1539.94 524.18 1539.94 527.86C1539.94 531.52 1541.32 533.58 1543.76 533.58ZM1556.82 535.26C1553.38 535.26 1551.2 532.4 1551.2 527.86C1551.2 523.3 1553.38 520.42 1556.82 520.42C1560.28 520.42 1562.46 523.28 1562.46 527.86C1562.46 532.4 1560.28 535.26 1556.82 535.26ZM1556.82 533.58C1559.28 533.58 1560.66 531.52 1560.66 527.86C1560.66 524.18 1559.28 522.1 1556.82 522.1C1554.38 522.1 1553 524.18 1553 527.86C1553 531.52 1554.38 533.58 1556.82 533.58Z" fill="#171717"/>
<path d="M1692.46 534.94V522.42H1688.04V520.74H1698.6V522.42H1694.18V534.94H1692.46ZM1702.11 535.18C1699.99 535.18 1698.63 533.68 1698.63 531.16V524.34H1700.31V530.7C1700.31 532.76 1701.03 533.7 1702.55 533.7C1704.23 533.7 1705.25 532.56 1705.25 530.66V524.34H1706.93V534.94H1705.33V533.22C1704.75 534.48 1703.63 535.18 1702.11 535.18ZM1713.68 535.18C1710.68 535.18 1708.82 533 1708.82 529.64C1708.82 526.28 1710.68 524.1 1713.6 524.1C1716.36 524.1 1718.28 526.1 1718.28 529.66V530.16H1710.58C1710.7 532.44 1711.84 533.58 1713.68 533.58C1715.06 533.58 1715.96 532.88 1716.32 531.8L1718.12 531.94C1717.56 533.84 1715.92 535.18 1713.68 535.18ZM1710.58 528.68H1716.44C1716.28 526.64 1715.16 525.7 1713.6 525.7C1711.96 525.7 1710.86 526.72 1710.58 528.68ZM1728.71 535.26C1726.35 535.26 1724.85 533.96 1724.33 532.2L1726.15 532.06C1726.47 533.02 1727.31 533.58 1728.71 533.58C1730.87 533.58 1732.15 532.06 1732.37 528.54C1731.61 529.74 1730.37 530.42 1728.87 530.42C1726.11 530.42 1724.15 528.42 1724.15 525.46C1724.15 522.36 1726.23 520.42 1729.09 520.42C1732.65 520.42 1734.21 523.02 1734.21 527C1734.21 531.76 1732.85 535.26 1728.71 535.26ZM1728.99 528.72C1730.93 528.72 1732.31 527.54 1732.31 525.5C1732.31 523.54 1731.09 522.1 1729.09 522.1C1727.13 522.1 1725.95 523.5 1725.95 525.46C1725.95 527.46 1727.19 528.72 1728.99 528.72Z" fill="#171717"/>
<path d="M1863.3 534.94V524.42H1860.34V522.94H1861.54C1863.1 522.94 1863.66 522.42 1863.66 520.74H1865.02V534.94H1863.3ZM1867.82 534.94C1867.82 531.94 1869 529.96 1873.26 527.7C1875.22 526.66 1876 526.02 1876 524.58C1876 523.12 1875.04 522.1 1873.16 522.1C1871.16 522.1 1870 523.18 1869.7 525.1L1867.9 524.98C1868.22 522.2 1870.08 520.42 1873.16 520.42C1876.08 520.42 1877.8 522.1 1877.8 524.54C1877.8 526.7 1876.84 527.78 1873.9 529.34C1871.34 530.7 1870.02 532.18 1869.94 533.26H1877.8V534.94H1867.82ZM1880.44 527.08V524.82H1882.7V527.08H1880.44ZM1880.44 534.94V532.68H1882.7V534.94H1880.44ZM1890.76 535.26C1887.32 535.26 1885.14 532.4 1885.14 527.86C1885.14 523.3 1887.32 520.42 1890.76 520.42C1894.22 520.42 1896.4 523.28 1896.4 527.86C1896.4 532.4 1894.22 535.26 1890.76 535.26ZM1890.76 533.58C1893.22 533.58 1894.6 531.52 1894.6 527.86C1894.6 524.18 1893.22 522.1 1890.76 522.1C1888.32 522.1 1886.94 524.18 1886.94 527.86C1886.94 531.52 1888.32 533.58 1890.76 533.58ZM1903.82 535.26C1900.38 535.26 1898.2 532.4 1898.2 527.86C1898.2 523.3 1900.38 520.42 1903.82 520.42C1907.28 520.42 1909.46 523.28 1909.46 527.86C1909.46 532.4 1907.28 535.26 1903.82 535.26ZM1903.82 533.58C1906.28 533.58 1907.66 531.52 1907.66 527.86C1907.66 524.18 1906.28 522.1 1903.82 522.1C1901.38 522.1 1900 524.18 1900 527.86C1900 531.52 1901.38 533.58 1903.82 533.58Z" fill="#171717"/>
<path d="M2033.12 534.94L2029.38 520.74H2031.26L2034.18 532.58L2037.08 520.74H2039.04L2041.96 532.58L2044.86 520.74H2046.76L2043.02 534.94H2040.86L2038.06 523.94L2035.26 534.94H2033.12ZM2052.07 535.18C2049.07 535.18 2047.21 533 2047.21 529.64C2047.21 526.28 2049.07 524.1 2051.99 524.1C2054.75 524.1 2056.67 526.1 2056.67 529.66V530.16H2048.97C2049.09 532.44 2050.23 533.58 2052.07 533.58C2053.45 533.58 2054.35 532.88 2054.71 531.8L2056.51 531.94C2055.95 533.84 2054.31 535.18 2052.07 535.18ZM2048.97 528.68H2054.83C2054.67 526.64 2053.55 525.7 2051.99 525.7C2050.35 525.7 2049.25 526.72 2048.97 528.68ZM2062.3 535.18C2059.54 535.18 2057.82 533.04 2057.82 529.64C2057.82 526.24 2059.54 524.1 2062.3 524.1C2063.72 524.1 2064.98 524.74 2065.56 525.82V520.74H2067.24V534.94H2065.72L2065.66 533.34C2065.06 534.5 2063.78 535.18 2062.3 535.18ZM2062.64 533.58C2064.52 533.58 2065.56 532.06 2065.56 529.64C2065.56 527.18 2064.52 525.7 2062.64 525.7C2060.78 525.7 2059.58 527.18 2059.58 529.64C2059.58 532.06 2060.78 533.58 2062.64 533.58ZM2076.8 534.94V524.42H2073.84V522.94H2075.04C2076.6 522.94 2077.16 522.42 2077.16 520.74H2078.52V534.94H2076.8ZM2086.74 535.26C2083.3 535.26 2081.12 532.4 2081.12 527.86C2081.12 523.3 2083.3 520.42 2086.74 520.42C2090.2 520.42 2092.38 523.28 2092.38 527.86C2092.38 532.4 2090.2 535.26 2086.74 535.26ZM2086.74 533.58C2089.2 533.58 2090.58 531.52 2090.58 527.86C2090.58 524.18 2089.2 522.1 2086.74 522.1C2084.3 522.1 2082.92 524.18 2082.92 527.86C2082.92 531.52 2084.3 533.58 2086.74 533.58Z" fill="#171717"/>
<path d="M2121 108L88 108" stroke="#C9C9C9"/>
<path d="M2121 280.5L88 280.5" stroke="#C9C9C9"/>
<path d="M2121 453L88 453" stroke="#C9C9C9"/>
<path d="M37.76 118V107.48H34.8V106H36C37.56 106 38.12 105.48 38.12 103.8H39.48V118H37.76ZM47.7005 118.32C44.2605 118.32 42.0805 115.46 42.0805 110.92C42.0805 106.36 44.2605 103.48 47.7005 103.48C51.1605 103.48 53.3405 106.34 53.3405 110.92C53.3405 115.46 51.1605 118.32 47.7005 118.32ZM47.7005 116.64C50.1605 116.64 51.5405 114.58 51.5405 110.92C51.5405 107.24 50.1605 105.16 47.7005 105.16C45.2605 105.16 43.8805 107.24 43.8805 110.92C43.8805 114.58 45.2605 116.64 47.7005 116.64ZM55.7822 118V103.8H58.1822L62.7222 116.12L67.2422 103.8H69.6422V118H67.9222V107L63.8622 118H61.5622L57.5022 107V118H55.7822Z" fill="#171717"/>
<path d="M40.4107 285.324C37.4107 285.324 35.5707 283.704 35.3707 281.344L37.1707 281.224C37.3707 282.824 38.6107 283.644 40.4107 283.644C42.4107 283.644 43.6707 282.444 43.6707 280.444C43.6707 278.444 42.4507 277.184 40.3707 277.184C39.0507 277.184 37.9107 277.784 37.4507 278.784H35.6107L36.5507 270.804H44.5107V272.484H38.1307L37.6107 276.764C38.3307 275.964 39.4707 275.544 40.6907 275.544C43.5307 275.544 45.4707 277.604 45.4707 280.444C45.4707 283.304 43.3907 285.324 40.4107 285.324ZM48.1302 285.004V270.804H50.5302L55.0702 283.124L59.5902 270.804H61.9902V285.004H60.2702V274.004L56.2102 285.004H53.9102L49.8502 274.004V285.004H48.1302Z" fill="#171717"/>
<path d="M40.62 452.328C37.18 452.328 35 449.468 35 444.928C35 440.368 37.18 437.488 40.62 437.488C44.08 437.488 46.26 440.348 46.26 444.928C46.26 449.468 44.08 452.328 40.62 452.328ZM40.62 450.648C43.08 450.648 44.46 448.588 44.46 444.928C44.46 441.248 43.08 439.168 40.62 439.168C38.18 439.168 36.8 441.248 36.8 444.928C36.8 448.588 38.18 450.648 40.62 450.648Z" fill="#171717"/>
<path d="M87.4156 334.559L100.159 330.703L110.168 318.695L118.364 314.422L136.852 311.463L143.714 139.548L151.91 286.81L166.014 295.028L185.646 277.606H194.033L201.276 282.208L208.709 271.36L215.571 269.388L222.433 277.606L231.2 290.426L239.587 286.81L244.161 290.426L252.357 88.9263L260.553 144.15L266.843 302.259H274.276L288.762 310.806L295.243 327.57L307.251 331.514L317.734 343.677H331.838L339.462 339.075H352.995L360.428 318.037L367.29 331.514H374.342L382.538 348.607L397.596 350.908L411.891 348.607H419.325L425.996 341.704H431.904L440.672 333.487L447.724 336.116L462.019 321.982L476.886 328.885L489.847 318.037L497.471 320.01L511.767 305.875H519.2L527.586 282.208H533.114L544.931 251.967L552.555 246.05H563.61L569.138 231.915H577.334L584.767 253.939H596.203L618.885 266.101L635.086 281.879H641.948L650.334 293.384L657.387 296.671L663.295 293.384L671.491 253.939L685.977 308.176L699.51 296.671L707.515 308.176L715.52 315.736L721.048 312.121L728.1 323.954L736.486 325.926H743.729L750.972 313.764L758.787 323.954L766.601 319.023H773.463L779.562 328.556H795.382L809.106 320.667L815.777 312.121H822.638L830.072 304.56L836.552 312.121L844.558 313.764L857.137 296.671L867.049 300.287L875.054 293.384L879.629 296.671L888.396 291.083L904.026 296.671L917.749 300.287L939.287 304.56L945.767 310.477H959.872L971.88 319.023L989.034 321.653L998.183 334.473L1006.76 336.445L1010.95 339.404L1019.53 336.445L1048.31 339.404L1061.08 328.556L1069.47 336.445H1077.66L1082.43 339.404H1095.2L1098.06 341.704L1104.35 336.445L1119.22 339.404L1125.7 328.556L1133.51 297L1140.94 332.829L1154.48 330.857L1161.91 287.796L1170.3 266.759L1177.16 303.245L1185.54 317.38H1193.55L1209.18 306.204L1228.62 299.301L1234.91 292.069H1254.35H1266.93L1277.8 287.796L1282.75 292.069L1292.66 285.824L1299.14 294.37H1307.72L1315.15 299.301L1326.59 306.204L1337.26 310.477L1349.08 323.954L1372.14 321.982L1379.2 317.38L1392.54 328.556L1407.98 402.187L1422.46 328.556L1436.19 334.473L1444.95 355.51L1451.63 402.187L1458.68 416.979L1466.11 413.692L1473.35 416.979L1480.79 406.789H1499.85L1516.43 413.692L1524.63 409.419H1529.77L1539.49 402.187L1547.31 406.789L1557.41 409.419L1563.51 406.789L1575.33 409.419L1622.79 411.391L1635.18 415.007H1654.62L1665.67 417.965H1675.39L1690.83 425.526L1738.48 429.47L1755.44 432.428L1772.79 429.47L1789.37 432.428L1813.2 429.47L1835.5 427.827L1840.83 423.882H1872.47L1896.68 416.322L1916.31 412.706L1934.42 409.419H1957.86L1965.49 416.322L1972.73 409.419L1979.97 416.322H1988.17L1999.99 423.882L2008.37 389.039L2014.66 383.451L2022.48 389.039L2035.63 394.627L2067.65 405.474L2083.47 407.118L2096.05 416.322L2115.3 411.391L2124.64 416.322L2151.13 407.118" stroke="#171717" stroke-width="4"/>
</svg>
