<svg width="2185" height="585" viewBox="0 0 2185 585" fill="none" xmlns="http://www.w3.org/2000/svg">
<rect width="2185" height="585" fill="white"/>
<path d="M118.059 447.071V455.071" stroke="#C9C9C9"/>
<path d="M128.059 447.071V455.071" stroke="#C9C9C9"/>
<path d="M138.059 447.071V455.071" stroke="#C9C9C9"/>
<path d="M148.059 447.071V455.071" stroke="#C9C9C9"/>
<path d="M158.059 447.071V455.071" stroke="#C9C9C9"/>
<path d="M168.059 447.071V455.071" stroke="#C9C9C9"/>
<path d="M178.059 447.071V455.071" stroke="#C9C9C9"/>
<path d="M188.059 447.071L188.059 477.071" stroke="#C9C9C9"/>
<path d="M198.059 447.071V455.071" stroke="#C9C9C9"/>
<path d="M208.059 447.071V455.071" stroke="#C9C9C9"/>
<path d="M218.059 447.071V455.071" stroke="#C9C9C9"/>
<path d="M228.059 447.071V455.071" stroke="#C9C9C9"/>
<path d="M238.059 447.071V455.071" stroke="#C9C9C9"/>
<path d="M248.059 447.071V455.071" stroke="#C9C9C9"/>
<path d="M258.059 447.071V455.071" stroke="#C9C9C9"/>
<path d="M268.059 447.071V455.071" stroke="#C9C9C9"/>
<path d="M278.059 447.071V455.071" stroke="#C9C9C9"/>
<path d="M288.059 447.071V455.071" stroke="#C9C9C9"/>
<path d="M298.059 447.071V455.071" stroke="#C9C9C9"/>
<path d="M308.059 447.071V455.071" stroke="#C9C9C9"/>
<path d="M318.059 447.071V455.071" stroke="#C9C9C9"/>
<path d="M328.059 447.071V455.071" stroke="#C9C9C9"/>
<path d="M338.059 447.071V455.071" stroke="#C9C9C9"/>
<path d="M348.059 447.071V455.071" stroke="#C9C9C9"/>
<path d="M358.059 447.071V455.071" stroke="#C9C9C9"/>
<path d="M368.059 447.071V455.071" stroke="#C9C9C9"/>
<path d="M378.059 447.071V455.071" stroke="#C9C9C9"/>
<path d="M388.059 447.071V455.071" stroke="#C9C9C9"/>
<path d="M398.059 447.071V455.071" stroke="#C9C9C9"/>
<path d="M408.059 447.071V455.071" stroke="#C9C9C9"/>
<path d="M418.059 447.071V455.071" stroke="#C9C9C9"/>
<path d="M428.059 447.071V455.071" stroke="#C9C9C9"/>
<path d="M438.059 447.071V455.071" stroke="#C9C9C9"/>
<path d="M448.059 447.071V455.071" stroke="#C9C9C9"/>
<path d="M458.059 447.071V455.071" stroke="#C9C9C9"/>
<path d="M468.059 447.071V455.071" stroke="#C9C9C9"/>
<path d="M478.059 447.071V455.071" stroke="#C9C9C9"/>
<path d="M488.059 447.071V455.071" stroke="#C9C9C9"/>
<path d="M498.059 447.071V455.071" stroke="#C9C9C9"/>
<path d="M508.059 447.071V455.071" stroke="#C9C9C9"/>
<path d="M518.059 447.071V477.071" stroke="#C9C9C9"/>
<path d="M528.059 447.071V455.071" stroke="#C9C9C9"/>
<path d="M538.059 447.071V455.071" stroke="#C9C9C9"/>
<path d="M548.059 447.071V455.071" stroke="#C9C9C9"/>
<path d="M558.059 447.071V455.071" stroke="#C9C9C9"/>
<path d="M568.059 447.071V455.071" stroke="#C9C9C9"/>
<path d="M578.059 447.071V455.071" stroke="#C9C9C9"/>
<path d="M588.059 447.071V455.071" stroke="#C9C9C9"/>
<path d="M598.059 447.071V455.071" stroke="#C9C9C9"/>
<path d="M608.059 447.071V455.071" stroke="#C9C9C9"/>
<path d="M618.059 447.071V455.071" stroke="#C9C9C9"/>
<path d="M628.059 447.071V455.071" stroke="#C9C9C9"/>
<path d="M638.059 447.071V455.071" stroke="#C9C9C9"/>
<path d="M648.059 447.071V455.071" stroke="#C9C9C9"/>
<path d="M658.059 447.071V455.071" stroke="#C9C9C9"/>
<path d="M668.059 447.071V455.071" stroke="#C9C9C9"/>
<path d="M678.059 447.071V455.071" stroke="#C9C9C9"/>
<path d="M688.059 447.071V455.071" stroke="#C9C9C9"/>
<path d="M698.059 447.071V455.071" stroke="#C9C9C9"/>
<path d="M708.059 447.071V455.071" stroke="#C9C9C9"/>
<path d="M718.059 447.071V455.071" stroke="#C9C9C9"/>
<path d="M728.059 447.071V455.071" stroke="#C9C9C9"/>
<path d="M738.059 447.071V455.071" stroke="#C9C9C9"/>
<path d="M748.059 447.071V455.071" stroke="#C9C9C9"/>
<path d="M758.059 447.071V455.071" stroke="#C9C9C9"/>
<path d="M768.059 447.071V455.071" stroke="#C9C9C9"/>
<path d="M778.059 447.071V455.071" stroke="#C9C9C9"/>
<path d="M788.059 447.071V455.071" stroke="#C9C9C9"/>
<path d="M798.059 447.071V455.071" stroke="#C9C9C9"/>
<path d="M808.059 447.071V455.071" stroke="#C9C9C9"/>
<path d="M818.059 447.071V455.071" stroke="#C9C9C9"/>
<path d="M828.059 447.071V455.071" stroke="#C9C9C9"/>
<path d="M838.059 447.071V455.071" stroke="#C9C9C9"/>
<path d="M848.059 447.071V477.071" stroke="#C9C9C9"/>
<path d="M858.059 447.071V455.071" stroke="#C9C9C9"/>
<path d="M868.059 447.071V455.071" stroke="#C9C9C9"/>
<path d="M878.059 447.071V455.071" stroke="#C9C9C9"/>
<path d="M888.059 447.071V455.071" stroke="#C9C9C9"/>
<path d="M898.059 447.071V455.071" stroke="#C9C9C9"/>
<path d="M908.059 447.071V455.071" stroke="#C9C9C9"/>
<path d="M918.059 447.071V455.071" stroke="#C9C9C9"/>
<path d="M928.059 447.071V455.071" stroke="#C9C9C9"/>
<path d="M938.059 447.071V455.071" stroke="#C9C9C9"/>
<path d="M948.059 447.071V455.071" stroke="#C9C9C9"/>
<path d="M958.059 447.071V455.071" stroke="#C9C9C9"/>
<path d="M968.059 447.071V455.071" stroke="#C9C9C9"/>
<path d="M978.059 447.071V455.071" stroke="#C9C9C9"/>
<path d="M988.059 447.071V455.071" stroke="#C9C9C9"/>
<path d="M998.059 447.071V455.071" stroke="#C9C9C9"/>
<path d="M1008.06 447.071V455.071" stroke="#C9C9C9"/>
<path d="M1018.06 447.071V455.071" stroke="#C9C9C9"/>
<path d="M1028.06 447.071V455.071" stroke="#C9C9C9"/>
<path d="M1038.06 447.071V455.071" stroke="#C9C9C9"/>
<path d="M1048.06 447.071V455.071" stroke="#C9C9C9"/>
<path d="M1058.06 447.071V455.071" stroke="#C9C9C9"/>
<path d="M1068.06 447.071V455.071" stroke="#C9C9C9"/>
<path d="M1078.06 447.071V455.071" stroke="#C9C9C9"/>
<path d="M1088.06 447.071V455.071" stroke="#C9C9C9"/>
<path d="M1098.06 447.071V455.071" stroke="#C9C9C9"/>
<path d="M1108.06 447.071V455.071" stroke="#C9C9C9"/>
<path d="M1118.06 447.071V455.071" stroke="#C9C9C9"/>
<path d="M1128.06 447.071V455.071" stroke="#C9C9C9"/>
<path d="M1138.06 447.071V455.071" stroke="#C9C9C9"/>
<path d="M1148.06 447.071V455.071" stroke="#C9C9C9"/>
<path d="M1158.06 447.071V455.071" stroke="#C9C9C9"/>
<path d="M1168.06 447.071V455.071" stroke="#C9C9C9"/>
<path d="M1178.06 447.071V455.071" stroke="#C9C9C9"/>
<path d="M1188.06 447.071V477.071" stroke="#C9C9C9"/>
<path d="M1198.06 447.071V455.071" stroke="#C9C9C9"/>
<path d="M1208.06 447.071V455.071" stroke="#C9C9C9"/>
<path d="M1218.06 447.071V455.071" stroke="#C9C9C9"/>
<path d="M1228.06 447.071V455.071" stroke="#C9C9C9"/>
<path d="M1238.06 447.071V455.071" stroke="#C9C9C9"/>
<path d="M1248.06 447.071V455.071" stroke="#C9C9C9"/>
<path d="M1258.06 447.071V455.071" stroke="#C9C9C9"/>
<path d="M1268.06 447.071V455.071" stroke="#C9C9C9"/>
<path d="M1278.06 447.071V455.071" stroke="#C9C9C9"/>
<path d="M1288.06 447.071V455.071" stroke="#C9C9C9"/>
<path d="M1298.06 447.071V455.071" stroke="#C9C9C9"/>
<path d="M1308.06 447.071V455.071" stroke="#C9C9C9"/>
<path d="M1318.06 447.071V455.071" stroke="#C9C9C9"/>
<path d="M1328.06 447.071V455.071" stroke="#C9C9C9"/>
<path d="M1338.06 447.071V455.071" stroke="#C9C9C9"/>
<path d="M1348.06 447.071V455.071" stroke="#C9C9C9"/>
<path d="M1358.06 447.071V455.071" stroke="#C9C9C9"/>
<path d="M1368.06 447.071V455.071" stroke="#C9C9C9"/>
<path d="M1378.06 447.071V455.071" stroke="#C9C9C9"/>
<path d="M1388.06 447.071V455.071" stroke="#C9C9C9"/>
<path d="M1398.06 447.071V455.071" stroke="#C9C9C9"/>
<path d="M1408.06 447.071V455.071" stroke="#C9C9C9"/>
<path d="M1418.06 447.071V455.071" stroke="#C9C9C9"/>
<path d="M1428.06 447.071V455.071" stroke="#C9C9C9"/>
<path d="M1438.06 447.071V455.071" stroke="#C9C9C9"/>
<path d="M1448.06 447.071V455.071" stroke="#C9C9C9"/>
<path d="M1458.06 447.071V455.071" stroke="#C9C9C9"/>
<path d="M1468.06 447.071V455.071" stroke="#C9C9C9"/>
<path d="M1478.06 447.071V455.071" stroke="#C9C9C9"/>
<path d="M1488.06 447.071V455.071" stroke="#C9C9C9"/>
<path d="M1498.06 447.071V455.071" stroke="#C9C9C9"/>
<path d="M1508.06 447.071V455.071" stroke="#C9C9C9"/>
<path d="M1518.06 447.071V477.071" stroke="#C9C9C9"/>
<path d="M1528.06 447.071V455.071" stroke="#C9C9C9"/>
<path d="M1538.06 447.071V455.071" stroke="#C9C9C9"/>
<path d="M1548.06 447.071V455.071" stroke="#C9C9C9"/>
<path d="M1558.06 447.071V455.071" stroke="#C9C9C9"/>
<path d="M1568.06 447.071V455.071" stroke="#C9C9C9"/>
<path d="M1578.06 447.071V455.071" stroke="#C9C9C9"/>
<path d="M1588.06 447.071V455.071" stroke="#C9C9C9"/>
<path d="M1598.06 447.071V455.071" stroke="#C9C9C9"/>
<path d="M1608.06 447.071V455.071" stroke="#C9C9C9"/>
<path d="M1618.06 447.071V455.071" stroke="#C9C9C9"/>
<path d="M1628.06 447.071V455.071" stroke="#C9C9C9"/>
<path d="M1638.06 447.071V455.071" stroke="#C9C9C9"/>
<path d="M1648.06 447.071V455.071" stroke="#C9C9C9"/>
<path d="M1658.06 447.071V455.071" stroke="#C9C9C9"/>
<path d="M1668.06 447.071V455.071" stroke="#C9C9C9"/>
<path d="M1678.06 447.071V455.071" stroke="#C9C9C9"/>
<path d="M1688.06 447.071V455.071" stroke="#C9C9C9"/>
<path d="M1698.06 447.071V455.071" stroke="#C9C9C9"/>
<path d="M1708.06 447.071V455.071" stroke="#C9C9C9"/>
<path d="M1718.06 447.071V455.071" stroke="#C9C9C9"/>
<path d="M1728.06 447.071V455.071" stroke="#C9C9C9"/>
<path d="M1738.06 447.071V455.071" stroke="#C9C9C9"/>
<path d="M1748.06 447.071V455.071" stroke="#C9C9C9"/>
<path d="M1758.06 447.071V455.071" stroke="#C9C9C9"/>
<path d="M1768.06 447.071V455.071" stroke="#C9C9C9"/>
<path d="M1778.06 447.071V455.071" stroke="#C9C9C9"/>
<path d="M1788.06 447.071V455.071" stroke="#C9C9C9"/>
<path d="M1798.06 447.071V455.071" stroke="#C9C9C9"/>
<path d="M1808.06 447.071V455.071" stroke="#C9C9C9"/>
<path d="M1818.06 447.071V455.071" stroke="#C9C9C9"/>
<path d="M1828.06 447.071V455.071" stroke="#C9C9C9"/>
<path d="M1838.06 447.071V455.071" stroke="#C9C9C9"/>
<path d="M1848.06 447.071V455.071" stroke="#C9C9C9"/>
<path d="M1858.06 447.071V455.071" stroke="#C9C9C9"/>
<path d="M1868.06 447.071V455.071" stroke="#C9C9C9"/>
<path d="M1878.06 447.071V455.071" stroke="#C9C9C9"/>
<path d="M1888.06 447.071V455.071" stroke="#C9C9C9"/>
<path d="M1898.06 447.071V455.071" stroke="#C9C9C9"/>
<path d="M1908.06 447.071V455.071" stroke="#C9C9C9"/>
<path d="M1918.06 447.071V455.071" stroke="#C9C9C9"/>
<path d="M1928.06 447.071V455.071" stroke="#C9C9C9"/>
<path d="M1938.06 447.071V455.071" stroke="#C9C9C9"/>
<path d="M1948.06 447.071V455.071" stroke="#C9C9C9"/>
<path d="M1958.06 447.071V455.071" stroke="#C9C9C9"/>
<path d="M1968.06 447.071V455.071" stroke="#C9C9C9"/>
<path d="M1978.06 447.071V455.071" stroke="#C9C9C9"/>
<path d="M1988.06 447.071V455.071" stroke="#C9C9C9"/>
<path d="M1998.06 447.071V455.071" stroke="#C9C9C9"/>
<path d="M2008.06 447.071V455.071" stroke="#C9C9C9"/>
<path d="M2018.06 447.071V455.071" stroke="#C9C9C9"/>
<path d="M2028.06 447.071V455.071" stroke="#C9C9C9"/>
<path d="M2038.06 447.071V455.071" stroke="#C9C9C9"/>
<path d="M2048.06 447.071V455.071" stroke="#C9C9C9"/>
<path d="M2058.06 447.071V455.071" stroke="#C9C9C9"/>
<path d="M2068.06 447.071V455.071" stroke="#C9C9C9"/>
<path d="M2078.06 447.071V455.071" stroke="#C9C9C9"/>
<path d="M2088.06 447.071V455.071" stroke="#C9C9C9"/>
<path d="M2098.06 447.071V455.071" stroke="#C9C9C9"/>
<path d="M2108.06 447.071V455.071" stroke="#C9C9C9"/>
<path d="M2118.06 447.071V455.071" stroke="#C9C9C9"/>
<path d="M2128.06 447.071V455.071" stroke="#C9C9C9"/>
<path d="M2138.06 447.071V455.071" stroke="#C9C9C9"/>
<path d="M1166.86 520.293V509.773H1163.9V508.293H1165.1C1166.66 508.293 1167.22 507.773 1167.22 506.093H1168.58V520.293H1166.86ZM1171.38 520.293C1171.38 517.293 1172.56 515.313 1176.82 513.053C1178.78 512.013 1179.56 511.373 1179.56 509.933C1179.56 508.473 1178.6 507.453 1176.72 507.453C1174.72 507.453 1173.56 508.533 1173.26 510.453L1171.46 510.333C1171.78 507.553 1173.64 505.773 1176.72 505.773C1179.64 505.773 1181.36 507.453 1181.36 509.893C1181.36 512.053 1180.4 513.133 1177.46 514.693C1174.9 516.053 1173.58 517.533 1173.5 518.613H1181.36V520.293H1171.38ZM1184 512.433V510.173H1186.26V512.433H1184ZM1184 520.293V518.033H1186.26V520.293H1184ZM1194.32 520.613C1190.88 520.613 1188.7 517.753 1188.7 513.213C1188.7 508.653 1190.88 505.773 1194.32 505.773C1197.78 505.773 1199.96 508.633 1199.96 513.213C1199.96 517.753 1197.78 520.613 1194.32 520.613ZM1194.32 518.933C1196.78 518.933 1198.16 516.873 1198.16 513.213C1198.16 509.533 1196.78 507.453 1194.32 507.453C1191.88 507.453 1190.5 509.533 1190.5 513.213C1190.5 516.873 1191.88 518.933 1194.32 518.933ZM1207.38 520.613C1203.94 520.613 1201.76 517.753 1201.76 513.213C1201.76 508.653 1203.94 505.773 1207.38 505.773C1210.84 505.773 1213.02 508.633 1213.02 513.213C1213.02 517.753 1210.84 520.613 1207.38 520.613ZM1207.38 518.933C1209.84 518.933 1211.22 516.873 1211.22 513.213C1211.22 509.533 1209.84 507.453 1207.38 507.453C1204.94 507.453 1203.56 509.533 1203.56 513.213C1203.56 516.873 1204.94 518.933 1207.38 518.933Z" fill="#171717"/>
<path d="M1826.36 520.293V509.773H1823.4V508.293H1824.6C1826.16 508.293 1826.72 507.773 1826.72 506.093H1828.08V520.293H1826.36ZM1830.88 520.293C1830.88 517.293 1832.06 515.313 1836.32 513.053C1838.28 512.013 1839.06 511.373 1839.06 509.933C1839.06 508.473 1838.1 507.453 1836.22 507.453C1834.22 507.453 1833.06 508.533 1832.76 510.453L1830.96 510.333C1831.28 507.553 1833.14 505.773 1836.22 505.773C1839.14 505.773 1840.86 507.453 1840.86 509.893C1840.86 512.053 1839.9 513.133 1836.96 514.693C1834.4 516.053 1833.08 517.533 1833 518.613H1840.86V520.293H1830.88ZM1843.5 512.433V510.173H1845.76V512.433H1843.5ZM1843.5 520.293V518.033H1845.76V520.293H1843.5ZM1853.82 520.613C1850.38 520.613 1848.2 517.753 1848.2 513.213C1848.2 508.653 1850.38 505.773 1853.82 505.773C1857.28 505.773 1859.46 508.633 1859.46 513.213C1859.46 517.753 1857.28 520.613 1853.82 520.613ZM1853.82 518.933C1856.28 518.933 1857.66 516.873 1857.66 513.213C1857.66 509.533 1856.28 507.453 1853.82 507.453C1851.38 507.453 1850 509.533 1850 513.213C1850 516.873 1851.38 518.933 1853.82 518.933ZM1866.88 520.613C1863.44 520.613 1861.26 517.753 1861.26 513.213C1861.26 508.653 1863.44 505.773 1866.88 505.773C1870.34 505.773 1872.52 508.633 1872.52 513.213C1872.52 517.753 1870.34 520.613 1866.88 520.613ZM1866.88 518.933C1869.34 518.933 1870.72 516.873 1870.72 513.213C1870.72 509.533 1869.34 507.453 1866.88 507.453C1864.44 507.453 1863.06 509.533 1863.06 513.213C1863.06 516.873 1864.44 518.933 1866.88 518.933Z" fill="#171717"/>
<path d="M496.359 520.293V509.773H493.399V508.293H494.599C496.159 508.293 496.719 507.773 496.719 506.093H498.079V520.293H496.359ZM500.88 520.293C500.88 517.293 502.06 515.313 506.32 513.053C508.28 512.013 509.06 511.373 509.06 509.933C509.06 508.473 508.1 507.453 506.22 507.453C504.22 507.453 503.06 508.533 502.76 510.453L500.96 510.333C501.28 507.553 503.14 505.773 506.22 505.773C509.14 505.773 510.86 507.453 510.86 509.893C510.86 512.053 509.9 513.133 506.96 514.693C504.4 516.053 503.08 517.533 503 518.613H510.86V520.293H500.88ZM513.503 512.433V510.173H515.763V512.433H513.503ZM513.503 520.293V518.033H515.763V520.293H513.503ZM523.82 520.613C520.38 520.613 518.2 517.753 518.2 513.213C518.2 508.653 520.38 505.773 523.82 505.773C527.28 505.773 529.46 508.633 529.46 513.213C529.46 517.753 527.28 520.613 523.82 520.613ZM523.82 518.933C526.28 518.933 527.66 516.873 527.66 513.213C527.66 509.533 526.28 507.453 523.82 507.453C521.38 507.453 520 509.533 520 513.213C520 516.873 521.38 518.933 523.82 518.933ZM536.877 520.613C533.437 520.613 531.257 517.753 531.257 513.213C531.257 508.653 533.437 505.773 536.877 505.773C540.337 505.773 542.517 508.633 542.517 513.213C542.517 517.753 540.337 520.613 536.877 520.613ZM536.877 518.933C539.337 518.933 540.717 516.873 540.717 513.213C540.717 509.533 539.337 507.453 536.877 507.453C534.437 507.453 533.057 509.533 533.057 513.213C533.057 516.873 534.437 518.933 536.877 518.933Z" fill="#171717"/>
<path d="M187.517 520.613C184.197 520.613 182.357 518.953 182.137 516.473L184.797 516.333C185.017 517.673 185.997 518.333 187.517 518.333C189.237 518.333 190.277 517.333 190.277 515.613C190.277 513.953 189.237 512.873 187.497 512.873C186.297 512.873 185.337 513.433 184.957 514.293H182.317L183.297 506.093H191.997V508.353H185.557L185.097 511.973C185.817 511.233 186.897 510.833 188.197 510.833C191.097 510.833 192.957 512.873 192.957 515.613C192.957 518.633 190.777 520.613 187.517 520.613Z" fill="#171717"/>
<path d="M848.187 520.613C844.687 520.613 842.827 518.233 842.827 514.133C842.827 509.393 844.547 505.773 848.707 505.773C851.367 505.773 852.887 507.173 853.427 509.373L850.947 509.573C850.627 508.593 850.027 508.013 848.687 508.013C846.827 508.013 845.667 509.433 845.407 512.393C846.047 511.533 847.187 510.893 848.727 510.893C851.587 510.893 853.487 512.773 853.487 515.613C853.487 518.773 851.327 520.613 848.187 520.613ZM848.187 518.433C849.767 518.433 850.887 517.373 850.887 515.613C850.887 513.973 849.827 512.893 848.307 512.893C846.667 512.893 845.487 513.973 845.487 515.613C845.487 517.273 846.547 518.433 848.187 518.433Z" fill="#171717"/>
<path d="M1512.56 520.293C1512.56 515.893 1514.38 511.713 1517.24 508.353H1509.58V506.093H1519.94V508.213C1516.74 511.813 1515.2 515.333 1515.2 520.293H1512.56Z" fill="#171717"/>
<path d="M2151.13 73L118.131 73.0001" stroke="#C9C9C9"/>
<path d="M2151.13 146L118.131 146" stroke="#C9C9C9"/>
<path d="M2151.13 219L118.131 219" stroke="#C9C9C9"/>
<path d="M2151.13 292L118.131 292.001" stroke="#C9C9C9"/>
<path d="M2151.13 365L118.131 365.001" stroke="#C9C9C9"/>
<path d="M2151.13 438.001L118.131 438.001" stroke="#C9C9C9"/>
<path d="M52.3511 438.071H79.9058L104.91 431.371L131.869 435.211L160.949 427.583L189.553 393.259L217.203 419.479H243.423L272.504 408.037L298.724 400.886L326.374 366.562L353.548 373.713L381.198 370.376L409.325 350.83H437.929L465.102 327.947L493.229 342.249L520.402 223.543L548.529 290.285L574.75 121.047L604.307 255.484H631.48L659.13 300.773L685.827 308.878L713.001 210.195L742.081 286.948L768.301 303.634L795.475 294.099L824.078 348.446L852.205 365.608L866.507 351.783L880.809 337.481L908.459 318.889L934.202 294.099L961.853 300.773L989.503 282.181L1015.72 275.983L1045.76 308.878L1073.41 241.659L1100.11 210.195L1128.23 220.206L1154.93 202.567L1181.63 294.099L1210.71 318.889L1266.96 225.45L1293.18 195.893L1320.35 202.567L1348.28 227.555L1375.85 268.51L1404.2 250.92L1431.5 262.734L1459.86 218.366L1487.42 238.844L1513.94 217.053L1541.77 256.958L1570.12 191.063L1597.42 163.759L1624.73 234.906L1651.77 267.197L1681.7 269.56L1708.74 238.319L1739.45 217.841L1762.56 206.815L1791.17 225.98L1818.48 228.867L1845.78 256.171L1872.03 248.032L1899.86 250.133L1928.74 236.481L1956.04 266.147L1983.35 269.822L2010.65 236.481L2039.27 239.631L2065.78 302.902L2121.18 221.516L2151.37 342.019" stroke="#171717" stroke-width="4"/>
<path d="M37.3907 78.7073V68.1873H34.4307V66.7073H35.6307C37.1907 66.7073 37.7507 66.1873 37.7507 64.5073H39.1107V78.7073H37.3907ZM47.1465 79.0273C44.1465 79.0273 42.3065 77.4073 42.1065 75.0473L43.9065 74.9273C44.1065 76.5273 45.3465 77.3473 47.1465 77.3473C49.1465 77.3473 50.4065 76.1473 50.4065 74.1473C50.4065 72.1473 49.1865 70.8873 47.1065 70.8873C45.7865 70.8873 44.6465 71.4873 44.1865 72.4873H42.3465L43.2865 64.5073H51.2465V66.1873H44.8665L44.3465 70.4673C45.0665 69.6673 46.2065 69.2473 47.4265 69.2473C50.2665 69.2473 52.2065 71.3073 52.2065 74.1473C52.2065 77.0073 50.1265 79.0273 47.1465 79.0273ZM59.2554 79.0273C55.8154 79.0273 53.6354 76.1673 53.6354 71.6273C53.6354 67.0673 55.8154 64.1873 59.2554 64.1873C62.7154 64.1873 64.8954 67.0473 64.8954 71.6273C64.8954 76.1673 62.7154 79.0273 59.2554 79.0273ZM59.2554 77.3473C61.7154 77.3473 63.0954 75.2873 63.0954 71.6273C63.0954 67.9473 61.7154 65.8673 59.2554 65.8673C56.8154 65.8673 55.4354 67.9473 55.4354 71.6273C55.4354 75.2873 56.8154 77.3473 59.2554 77.3473ZM66.4371 81.8273L67.3971 78.7073H66.3771V76.4473H68.6371V78.4273L67.4371 81.8273H66.4371ZM75.7406 79.0273C72.3006 79.0273 70.1206 76.1673 70.1206 71.6273C70.1206 67.0673 72.3006 64.1873 75.7406 64.1873C79.2006 64.1873 81.3806 67.0473 81.3806 71.6273C81.3806 76.1673 79.2006 79.0273 75.7406 79.0273ZM75.7406 77.3473C78.2006 77.3473 79.5806 75.2873 79.5806 71.6273C79.5806 67.9473 78.2006 65.8673 75.7406 65.8673C73.3006 65.8673 71.9206 67.9473 71.9206 71.6273C71.9206 75.2873 73.3006 77.3473 75.7406 77.3473ZM88.7976 79.0273C85.3576 79.0273 83.1776 76.1673 83.1776 71.6273C83.1776 67.0673 85.3576 64.1873 88.7976 64.1873C92.2576 64.1873 94.4376 67.0473 94.4376 71.6273C94.4376 76.1673 92.2576 79.0273 88.7976 79.0273ZM88.7976 77.3473C91.2576 77.3473 92.6376 75.2873 92.6376 71.6273C92.6376 67.9473 91.2576 65.8673 88.7976 65.8673C86.3576 65.8673 84.9776 67.9473 84.9776 71.6273C84.9776 75.2873 86.3576 77.3473 88.7976 77.3473ZM101.855 79.0273C98.4146 79.0273 96.2346 76.1673 96.2346 71.6273C96.2346 67.0673 98.4146 64.1873 101.855 64.1873C105.315 64.1873 107.495 67.0473 107.495 71.6273C107.495 76.1673 105.315 79.0273 101.855 79.0273ZM101.855 77.3473C104.315 77.3473 105.695 75.2873 105.695 71.6273C105.695 67.9473 104.315 65.8673 101.855 65.8673C99.4146 65.8673 98.0346 67.9473 98.0346 71.6273C98.0346 75.2873 99.4146 77.3473 101.855 77.3473Z" fill="#171717"/>
<path d="M37.3907 150.509V139.989H34.4307V138.509H35.6307C37.1907 138.509 37.7507 137.989 37.7507 136.309H39.1107V150.509H37.3907ZM41.9112 150.509C41.9112 147.509 43.0912 145.529 47.3512 143.269C49.3112 142.229 50.0912 141.589 50.0912 140.149C50.0912 138.689 49.1312 137.669 47.2512 137.669C45.2512 137.669 44.0912 138.749 43.7912 140.669L41.9912 140.549C42.3112 137.769 44.1712 135.989 47.2512 135.989C50.1712 135.989 51.8912 137.669 51.8912 140.109C51.8912 142.269 50.9312 143.349 47.9912 144.909C45.4312 146.269 44.1112 147.749 44.0312 148.829H51.8912V150.509H41.9112ZM59.314 150.829C55.874 150.829 53.694 147.969 53.694 143.429C53.694 138.869 55.874 135.989 59.314 135.989C62.774 135.989 64.954 138.849 64.954 143.429C64.954 147.969 62.774 150.829 59.314 150.829ZM59.314 149.149C61.774 149.149 63.154 147.089 63.154 143.429C63.154 139.749 61.774 137.669 59.314 137.669C56.874 137.669 55.494 139.749 55.494 143.429C55.494 147.089 56.874 149.149 59.314 149.149ZM66.4957 153.629L67.4557 150.509H66.4357V148.249H68.6957V150.229L67.4957 153.629H66.4957ZM75.7992 150.829C72.3592 150.829 70.1792 147.969 70.1792 143.429C70.1792 138.869 72.3592 135.989 75.7992 135.989C79.2592 135.989 81.4392 138.849 81.4392 143.429C81.4392 147.969 79.2592 150.829 75.7992 150.829ZM75.7992 149.149C78.2592 149.149 79.6392 147.089 79.6392 143.429C79.6392 139.749 78.2592 137.669 75.7992 137.669C73.3592 137.669 71.9792 139.749 71.9792 143.429C71.9792 147.089 73.3592 149.149 75.7992 149.149ZM88.8562 150.829C85.4162 150.829 83.2362 147.969 83.2362 143.429C83.2362 138.869 85.4162 135.989 88.8562 135.989C92.3162 135.989 94.4962 138.849 94.4962 143.429C94.4962 147.969 92.3162 150.829 88.8562 150.829ZM88.8562 149.149C91.3162 149.149 92.6962 147.089 92.6962 143.429C92.6962 139.749 91.3162 137.669 88.8562 137.669C86.4162 137.669 85.0362 139.749 85.0362 143.429C85.0362 147.089 86.4162 149.149 88.8562 149.149ZM101.913 150.829C98.4732 150.829 96.2932 147.969 96.2932 143.429C96.2932 138.869 98.4732 135.989 101.913 135.989C105.373 135.989 107.553 138.849 107.553 143.429C107.553 147.969 105.373 150.829 101.913 150.829ZM101.913 149.149C104.373 149.149 105.753 147.089 105.753 143.429C105.753 139.749 104.373 137.669 101.913 137.669C99.4732 137.669 98.0932 139.749 98.0932 143.429C98.0932 147.089 99.4732 149.149 101.913 149.149Z" fill="#171717"/>
<path d="M38.9907 222.631C36.6307 222.631 35.1307 221.331 34.6107 219.571L36.4307 219.431C36.7507 220.391 37.5907 220.951 38.9907 220.951C41.1507 220.951 42.4307 219.431 42.6507 215.911C41.8907 217.111 40.6507 217.791 39.1507 217.791C36.3907 217.791 34.4307 215.791 34.4307 212.831C34.4307 209.731 36.5107 207.791 39.3707 207.791C42.9307 207.791 44.4907 210.391 44.4907 214.371C44.4907 219.131 43.1307 222.631 38.9907 222.631ZM39.2707 216.091C41.2107 216.091 42.5907 214.911 42.5907 212.871C42.5907 210.911 41.3707 209.471 39.3707 209.471C37.4107 209.471 36.2307 210.871 36.2307 212.831C36.2307 214.831 37.4707 216.091 39.2707 216.091ZM51.9015 222.631C48.4615 222.631 46.2815 219.771 46.2815 215.231C46.2815 210.671 48.4615 207.791 51.9015 207.791C55.3615 207.791 57.5415 210.651 57.5415 215.231C57.5415 219.771 55.3615 222.631 51.9015 222.631ZM51.9015 220.951C54.3615 220.951 55.7415 218.891 55.7415 215.231C55.7415 211.551 54.3615 209.471 51.9015 209.471C49.4615 209.471 48.0815 211.551 48.0815 215.231C48.0815 218.891 49.4615 220.951 51.9015 220.951ZM59.0832 225.431L60.0432 222.311H59.0232V220.051H61.2832V222.031L60.0832 225.431H59.0832ZM68.3867 222.631C64.9467 222.631 62.7667 219.771 62.7667 215.231C62.7667 210.671 64.9467 207.791 68.3867 207.791C71.8467 207.791 74.0267 210.651 74.0267 215.231C74.0267 219.771 71.8467 222.631 68.3867 222.631ZM68.3867 220.951C70.8467 220.951 72.2267 218.891 72.2267 215.231C72.2267 211.551 70.8467 209.471 68.3867 209.471C65.9467 209.471 64.5667 211.551 64.5667 215.231C64.5667 218.891 65.9467 220.951 68.3867 220.951ZM81.4437 222.631C78.0037 222.631 75.8237 219.771 75.8237 215.231C75.8237 210.671 78.0037 207.791 81.4437 207.791C84.9037 207.791 87.0837 210.651 87.0837 215.231C87.0837 219.771 84.9037 222.631 81.4437 222.631ZM81.4437 220.951C83.9037 220.951 85.2837 218.891 85.2837 215.231C85.2837 211.551 83.9037 209.471 81.4437 209.471C79.0037 209.471 77.6237 211.551 77.6237 215.231C77.6237 218.891 79.0037 220.951 81.4437 220.951ZM94.5007 222.631C91.0607 222.631 88.8807 219.771 88.8807 215.231C88.8807 210.671 91.0607 207.791 94.5007 207.791C97.9607 207.791 100.141 210.651 100.141 215.231C100.141 219.771 97.9607 222.631 94.5007 222.631ZM94.5007 220.951C96.9607 220.951 98.3407 218.891 98.3407 215.231C98.3407 211.551 96.9607 209.471 94.5007 209.471C92.0607 209.471 90.6807 211.551 90.6807 215.231C90.6807 218.891 92.0607 220.951 94.5007 220.951Z" fill="#171717"/>
<path d="M39.6707 294.432C36.4707 294.432 34.6307 292.172 34.6307 288.112C34.6307 283.432 36.0307 279.592 40.2307 279.592C42.7507 279.592 44.0707 280.952 44.6307 282.952L42.8307 283.112C42.5107 281.992 41.7907 281.272 40.2307 281.272C38.0707 281.272 36.7107 282.952 36.4307 286.372C37.1107 285.332 38.3707 284.552 39.9907 284.552C42.7907 284.552 44.6907 286.472 44.6907 289.392C44.6907 292.512 42.6107 294.432 39.6707 294.432ZM39.7107 292.752C41.5707 292.752 42.8907 291.512 42.8907 289.392C42.8907 287.432 41.6507 286.192 39.8707 286.192C37.9507 286.192 36.5107 287.432 36.5107 289.392C36.5107 291.352 37.7507 292.752 39.7107 292.752ZM51.7062 294.432C48.2662 294.432 46.0862 291.572 46.0862 287.032C46.0862 282.472 48.2662 279.592 51.7062 279.592C55.1662 279.592 57.3462 282.452 57.3462 287.032C57.3462 291.572 55.1662 294.432 51.7062 294.432ZM51.7062 292.752C54.1662 292.752 55.5462 290.692 55.5462 287.032C55.5462 283.352 54.1662 281.272 51.7062 281.272C49.2662 281.272 47.8862 283.352 47.8862 287.032C47.8862 290.692 49.2662 292.752 51.7062 292.752ZM58.8879 297.232L59.8479 294.112H58.8279V291.852H61.0879V293.832L59.8879 297.232H58.8879ZM68.1914 294.432C64.7514 294.432 62.5714 291.572 62.5714 287.032C62.5714 282.472 64.7514 279.592 68.1914 279.592C71.6514 279.592 73.8314 282.452 73.8314 287.032C73.8314 291.572 71.6514 294.432 68.1914 294.432ZM68.1914 292.752C70.6514 292.752 72.0314 290.692 72.0314 287.032C72.0314 283.352 70.6514 281.272 68.1914 281.272C65.7514 281.272 64.3714 283.352 64.3714 287.032C64.3714 290.692 65.7514 292.752 68.1914 292.752ZM81.2484 294.432C77.8084 294.432 75.6284 291.572 75.6284 287.032C75.6284 282.472 77.8084 279.592 81.2484 279.592C84.7084 279.592 86.8884 282.452 86.8884 287.032C86.8884 291.572 84.7084 294.432 81.2484 294.432ZM81.2484 292.752C83.7084 292.752 85.0884 290.692 85.0884 287.032C85.0884 283.352 83.7084 281.272 81.2484 281.272C78.8084 281.272 77.4284 283.352 77.4284 287.032C77.4284 290.692 78.8084 292.752 81.2484 292.752ZM94.3054 294.432C90.8654 294.432 88.6854 291.572 88.6854 287.032C88.6854 282.472 90.8654 279.592 94.3054 279.592C97.7654 279.592 99.9454 282.452 99.9454 287.032C99.9454 291.572 97.7654 294.432 94.3054 294.432ZM94.3054 292.752C96.7654 292.752 98.1454 290.692 98.1454 287.032C98.1454 283.352 96.7654 281.272 94.3054 281.272C91.8654 281.272 90.4854 283.352 90.4854 287.032C90.4854 290.692 91.8654 292.752 94.3054 292.752Z" fill="#171717"/>
<path d="M39.7875 366.234C36.6275 366.234 34.8875 364.594 34.7675 362.254L36.5475 362.134C36.7075 363.874 38.0075 364.554 39.7875 364.554C41.6275 364.554 43.2275 363.874 43.2275 361.954C43.2275 360.074 41.8475 359.214 39.8075 359.214H38.6875V357.534H39.8075C41.4875 357.534 42.7275 356.934 42.7275 355.314C42.7275 353.854 41.7675 353.074 39.8875 353.074C38.0075 353.074 37.1075 353.834 36.9275 355.094L35.1275 354.974C35.3875 352.854 37.0475 351.394 39.8875 351.394C42.7675 351.394 44.5275 352.874 44.5275 355.234C44.5275 356.754 43.6875 357.774 42.0675 358.274C43.9075 358.774 45.0275 360.134 45.0275 361.954C45.0275 364.674 42.8675 366.234 39.7875 366.234ZM52.2531 366.234C48.8131 366.234 46.6331 363.374 46.6331 358.834C46.6331 354.274 48.8131 351.394 52.2531 351.394C55.7131 351.394 57.8931 354.254 57.8931 358.834C57.8931 363.374 55.7131 366.234 52.2531 366.234ZM52.2531 364.554C54.7131 364.554 56.0931 362.494 56.0931 358.834C56.0931 355.154 54.7131 353.074 52.2531 353.074C49.8131 353.074 48.4331 355.154 48.4331 358.834C48.4331 362.494 49.8131 364.554 52.2531 364.554ZM59.4348 369.034L60.3948 365.914H59.3748V363.654H61.6348V365.634L60.4348 369.034H59.4348ZM68.7382 366.234C65.2982 366.234 63.1182 363.374 63.1182 358.834C63.1182 354.274 65.2982 351.394 68.7382 351.394C72.1982 351.394 74.3782 354.254 74.3782 358.834C74.3782 363.374 72.1982 366.234 68.7382 366.234ZM68.7382 364.554C71.1982 364.554 72.5782 362.494 72.5782 358.834C72.5782 355.154 71.1982 353.074 68.7382 353.074C66.2982 353.074 64.9182 355.154 64.9182 358.834C64.9182 362.494 66.2982 364.554 68.7382 364.554ZM81.7953 366.234C78.3553 366.234 76.1753 363.374 76.1753 358.834C76.1753 354.274 78.3553 351.394 81.7953 351.394C85.2553 351.394 87.4353 354.254 87.4353 358.834C87.4353 363.374 85.2553 366.234 81.7953 366.234ZM81.7953 364.554C84.2553 364.554 85.6353 362.494 85.6353 358.834C85.6353 355.154 84.2553 353.074 81.7953 353.074C79.3553 353.074 77.9753 355.154 77.9753 358.834C77.9753 362.494 79.3553 364.554 81.7953 364.554ZM94.8523 366.234C91.4123 366.234 89.2323 363.374 89.2323 358.834C89.2323 354.274 91.4123 351.394 94.8523 351.394C98.3123 351.394 100.492 354.254 100.492 358.834C100.492 363.374 98.3123 366.234 94.8523 366.234ZM94.8523 364.554C97.3123 364.554 98.6923 362.494 98.6923 358.834C98.6923 355.154 97.3123 353.074 94.8523 353.074C92.4123 353.074 91.0323 355.154 91.0323 358.834C91.0323 362.494 92.4123 364.554 94.8523 364.554Z" fill="#171717"/>
<path d="M40.2507 438.036C36.8107 438.036 34.6307 435.176 34.6307 430.636C34.6307 426.076 36.8107 423.196 40.2507 423.196C43.7107 423.196 45.8907 426.056 45.8907 430.636C45.8907 435.176 43.7107 438.036 40.2507 438.036ZM40.2507 436.356C42.7107 436.356 44.0907 434.296 44.0907 430.636C44.0907 426.956 42.7107 424.876 40.2507 424.876C37.8107 424.876 36.4307 426.956 36.4307 430.636C36.4307 434.296 37.8107 436.356 40.2507 436.356Z" fill="#171717"/>
</svg>
